<?xml version="1.0" encoding="UTF-8"?>
<svg width="237px" height="406px" viewBox="0 0 237 406" version="1.1" xmlns="http://www.w3.org/2000/svg" xmlns:xlink="http://www.w3.org/1999/xlink">
    <!-- Generator: sketchtool 59.1 (101010) - https://sketch.com -->
    <title>7A70DC11-2018-4B70-92E4-FB6A6A9D752C</title>
    <desc>Created with sketchtool.</desc>
    <g id="Homepage-v4" stroke="none" stroke-width="1" fill="none" fill-rule="evenodd" opacity="0.3">
        <g id="Homepage-Overhaul-[02-Desktop-Min]---01-Default" transform="translate(-997.000000, -186.000000)" fill="#FFFFFF" fill-rule="nonzero">
            <g id="Group-13" transform="translate(997.000000, 184.000000)">
                <polygon id="ร" transform="translate(93.500000, 35.000000) rotate(-26.000000) translate(-93.500000, -35.000000) " points="95.0702466 35.0126323 99.5875403 40.9955953 96.191713 40.9967836 93.4609177 37.3859221 90.4213598 40.9988028 87 41 91.9297534 34.9873677 87.4124597 29.0044047 90.808287 29.0032164 93.5390823 32.6140779 96.5786402 29.0011972 100 29"></polygon>
                <path d="M227.05576,8.25913628 C226.189435,8.25913628 225.451716,7.95431126 224.842581,7.34465208 C224.233446,6.7349929 223.928883,6.01018675 223.928883,5.17021188 C223.928883,4.27604509 224.233446,3.52414338 224.842581,2.9144842 C225.451716,2.30482502 226.189435,2 227.05576,2 C227.922085,2 228.666575,2.30482502 229.289243,2.9144842 C229.911915,3.52414338 230.223246,4.27604509 230.223246,5.17021188 C230.223246,6.01018675 229.911915,6.7349929 229.289243,7.34465208 C228.666575,7.95431126 227.922085,8.25913628 227.05576,8.25913628 Z M235.78665,9.68166725 L236.233346,13.8273289 L218.365479,13.8273289 L218,9.68166725 L235.78665,9.68166725 Z M227.05576,21.9154336 C226.189435,21.9154336 225.451716,21.6038347 224.842581,20.9806275 C224.233446,20.3574235 223.928883,19.6258403 223.928883,18.7858655 C223.928883,17.8916987 224.233446,17.139797 224.842581,16.5301378 C225.451716,15.9204786 226.189435,15.6156536 227.05576,15.6156536 C227.922085,15.6156536 228.666575,15.9204786 229.289243,16.5301378 C229.911915,17.139797 230.223246,17.8916987 230.223246,18.7858655 C230.223246,19.6258403 229.911915,20.3574235 229.289243,20.9806275 C228.666575,21.6038347 227.922085,21.9154336 227.05576,21.9154336 Z" id="รท" transform="translate(227.116673, 11.957717) rotate(14.000000) translate(-227.116673, -11.957717) "></path>
                <path d="M133.5,104 C140.403559,104 146,98.4035594 146,91.5 C146,84.5964406 140.403559,79 133.5,79 C126.596441,79 121,84.5964406 121,91.5 C121,98.4035594 126.596441,104 133.5,104 Z" id="Oval"></path>
                <path d="M2,259 L30,259 L30,287 L2,287 L2,259 Z M6,283 L26,283 L26,263 L6,263 L6,283 Z" id="Rectangle" transform="translate(16.000000, 273.000000) rotate(-5.000000) translate(-16.000000, -273.000000) "></path>
                <polygon id="Rectangle-Copy-10" transform="translate(153.000000, 223.000000) rotate(318.000000) translate(-153.000000, -223.000000) " points="153 179 202 267 104 267"></polygon>
                <polygon id="&gt;" transform="translate(156.003315, 392.664926) rotate(10.000000) translate(-156.003315, -392.664926) " points="167.005999 390.487803 167.006629 394.774125 146.702114 409.329852 145.002565 401.348174 157.406804 392.629551 145 383.907276 146.697212 376"></polygon>
            </g>
        </g>
    </g>
</svg>