<?xml version="1.0" encoding="UTF-8"?>
<svg width="257px" height="457px" viewBox="0 0 257 457" version="1.1" xmlns="http://www.w3.org/2000/svg" xmlns:xlink="http://www.w3.org/1999/xlink">
    <!-- Generator: sketchtool 59.1 (101010) - https://sketch.com -->
    <title>07988B9C-AAB1-4A5A-8C2B-5FF5029B000B</title>
    <desc>Created with sketchtool.</desc>
    <g id="Homepage-v4" stroke="none" stroke-width="1" fill="none" fill-rule="evenodd" opacity="0.3">
        <g id="Homepage-Overhaul-[02-Desktop-Min]---01-Default" transform="translate(-31.000000, -200.000000)" fill="#FFFFFF" fill-rule="nonzero">
            <g id="Group-5" transform="translate(31.000000, 200.000000)">
                <polygon id="+" transform="translate(26.714286, 79.000000) rotate(12.000000) translate(-26.714286, -79.000000) " points="36.9795144 76.7186992 37.4285714 80.8280403 29.6733236 80.8267844 29.6750577 90 24.2060076 89.8330833 24.2043049 80.8258987 16.359401 80.8246283 16 76.7153017 24.2035281 76.7166302 24.2018803 68 29.6709225 68.125409 29.6725468 76.7175159"></polygon>
                <polygon id="−" transform="translate(37.507495, 336.074168) rotate(-12.000000) translate(-37.507495, -336.074168) " points="45.5283922 334 46.0149907 338.145422 29.3647677 338.148337 29 334.002893"></polygon>
                <path d="M138.644737,65 L139,69 L121.434211,69 L121,65 L138.644737,65 Z M139.159493,72.2618886 L139.514756,76.2618886 L121.948966,76.2618886 L121.514756,72.2618886 L139.159493,72.2618886 Z" id="=" transform="translate(130.257378, 70.630944) rotate(20.000000) translate(-130.257378, -70.630944) "></path>
                <path d="M10.5,21 C16.2989899,21 21,16.2989899 21,10.5 C21,4.70101013 16.2989899,0 10.5,0 C4.70101013,0 0,4.70101013 0,10.5 C0,16.2989899 4.70101013,21 10.5,21 Z M10.5,18 C6.35786438,18 3,14.6421356 3,10.5 C3,6.35786438 6.35786438,3 10.5,3 C14.6421356,3 18,6.35786438 18,10.5 C18,14.6421356 14.6421356,18 10.5,18 Z" id="Oval"></path>
                <polygon id="Rectangle-Copy-11" transform="translate(101.000000, 231.000000) rotate(-75.000000) translate(-101.000000, -231.000000) " points="68 198 134 198 134 264 68 264"></polygon>
                <path d="M243.571429,275 L247.730159,275.127093 L238.269841,297.686176 L234.111111,297.559083 L243.571429,275 Z M227,280.623884 C227,279.564767 227.248675,278.627462 227.746032,277.811942 C228.243389,276.996422 228.894176,276.366257 229.698413,275.921427 C230.50265,275.476598 231.359784,275.254187 232.269841,275.254187 C233.179899,275.254187 234.042324,275.471303 234.857143,275.905541 C235.671962,276.339779 236.322749,276.964648 236.809524,277.780169 C237.296299,278.595689 237.539683,279.543585 237.539683,280.623884 C237.539683,281.683001 237.291008,282.625601 236.793651,283.451713 C236.296294,284.277824 235.645507,284.913285 234.84127,285.358114 C234.037033,285.802943 233.179899,286.025355 232.269841,286.025355 C231.359784,286.025355 230.50265,285.808239 229.698413,285.374001 C228.894176,284.939763 228.243389,284.309597 227.746032,283.483486 C227.248675,282.657375 227,281.704184 227,280.623884 Z M230.460317,280.592111 C230.460317,281.39704 230.624337,282.011318 230.952381,282.434965 C231.280425,282.858612 231.719574,283.070432 232.269841,283.070432 C232.756616,283.070432 233.185183,282.853317 233.555556,282.419079 C233.925928,281.984841 234.111111,281.397039 234.111111,280.655657 C234.111111,279.893093 233.93651,279.299996 233.587302,278.876349 C233.238095,278.452703 232.798944,278.240882 232.269841,278.240882 C231.783066,278.240882 231.35979,278.452703 231,278.876349 C230.64021,279.299996 230.460317,279.871911 230.460317,280.592111 Z M244.52381,292.189386 C244.52381,291.109086 244.772484,290.161191 245.269841,289.34567 C245.767198,288.53015 246.417985,287.90528 247.222222,287.471042 C248.026459,287.036804 248.883593,286.819689 249.793651,286.819689 C250.703708,286.819689 251.555552,287.031509 252.349206,287.455156 C253.142861,287.878802 253.783066,288.493081 254.269841,289.29801 C254.756616,290.102939 255,291.05613 255,292.157612 C255,293.21673 254.756616,294.15933 254.269841,294.985441 C253.783066,295.811552 253.13757,296.447013 252.333333,296.891842 C251.529097,297.336672 250.682544,297.559083 249.793651,297.559083 C248.883593,297.559083 248.026459,297.341967 247.222222,296.907729 C246.417985,296.473491 245.767198,295.848621 245.269841,295.033101 C244.772484,294.217581 244.52381,293.269685 244.52381,292.189386 Z M247.952381,292.125839 C247.952381,292.930768 248.121691,293.550342 248.460317,293.98458 C248.798943,294.418818 249.243383,294.635934 249.793651,294.635934 C250.280426,294.635934 250.703702,294.413523 251.063492,293.968694 C251.423282,293.523864 251.603175,292.930768 251.603175,292.189386 C251.603175,291.448004 251.428573,290.860202 251.079365,290.425964 C250.730159,289.991726 250.30159,289.774611 249.793651,289.774611 C249.306876,289.774611 248.878309,289.986431 248.507937,290.410078 C248.137564,290.833725 247.952381,291.405639 247.952381,292.125839 Z" id="%" transform="translate(241.000000, 286.343088) rotate(-30.000000) translate(-241.000000, -286.343088) "></path>
                <polygon id="Rectangle" transform="translate(100.000000, 434.000000) rotate(68.000000) translate(-100.000000, -434.000000) " points="100 417 117 451 83 451"></polygon>
            </g>
        </g>
    </g>
</svg>